<svg width="251" height="83" viewBox="0 0 251 83" fill="none" xmlns="http://www.w3.org/2000/svg">
<g clip-path="url(#clip0_1_60)">
<path d="M109.862 29.1645H112.462L119.517 62.587H117.247L115.514 53.3441H106.849L105.075 62.587H102.847L109.862 29.1645ZM115.226 51.6941L111.182 31.8886L107.18 51.6941H115.226Z" fill="black"/>
<path d="M128.056 29.1645H134.946C137.808 29.1645 139.809 29.9082 140.951 31.3923C142.091 32.878 142.662 34.9148 142.662 37.4994C142.662 39.1777 142.373 40.6849 141.797 42.0179C141.218 43.3526 140.2 44.1975 138.743 44.5561C140.476 45.0773 141.686 46.1231 142.373 47.6918C143.06 49.2588 143.406 50.9786 143.406 52.8494C143.406 55.8474 142.889 58.2195 141.859 59.9658C140.826 61.7138 138.852 62.587 135.937 62.587H128.056V29.1645ZM135.937 43.8124C137.642 43.8124 138.839 43.248 139.526 42.1208C140.214 40.9937 140.559 39.4532 140.559 37.4994C140.559 35.3812 140.139 33.7661 139.299 32.6522C138.461 31.5367 136.83 30.9806 134.41 30.9806H130.285V43.8124H135.937ZM135.649 60.8124C137.106 60.8124 138.233 60.5302 139.032 59.9658C139.83 59.4031 140.393 58.5565 140.723 57.4277C141.054 56.3006 141.218 54.7883 141.218 52.8909C141.218 50.6898 140.813 48.9219 140.001 47.5889C139.189 46.2542 137.85 45.5869 135.979 45.5869H130.285V60.8124H135.649Z" fill="black"/>
<path d="M157.559 29.1645H160.157L167.213 62.587H164.944L163.211 53.3441H154.546L152.771 62.587H150.544L157.559 29.1645ZM162.922 51.6941L158.879 31.8886L154.876 51.6941H162.922Z" fill="black"/>
<path d="M175.713 29.1645H177.982V47.9391L187.678 29.1645H189.907L182.851 43.3177L191.599 62.587H189.371L181.489 45.2566L177.982 51.6526V62.587H175.713V29.1645Z" fill="black"/>
<path d="M199.809 60.3792C198.627 58.6046 198.035 56.1362 198.035 52.9739V38.7793C198.035 35.617 198.639 33.1618 199.851 31.4138C201.061 29.6675 203.164 28.7944 206.164 28.7944C208.941 28.7944 210.91 29.5995 212.063 31.208C213.22 32.8165 213.796 35.1488 213.796 38.2016V39.8931H211.652V38.2016C211.652 35.6435 211.253 33.7461 210.455 32.5078C209.656 31.2694 208.227 30.6502 206.164 30.6502C203.908 30.6502 202.367 31.3109 201.542 32.6306C200.717 33.952 200.304 35.9191 200.304 38.5319V53.3026C200.304 55.9437 200.731 57.9174 201.584 59.2238C202.437 60.5302 203.963 61.1843 206.164 61.1843C208.254 61.1843 209.691 60.5452 210.475 59.2653C211.26 57.9871 211.652 56.0947 211.652 53.5914V51.5696H213.796V53.2213C213.796 56.357 213.232 58.7773 212.105 60.4821C210.978 62.1886 208.997 63.0418 206.164 63.0418C203.111 63.0418 200.991 62.1537 199.809 60.3792Z" fill="black"/>
<path d="M37.5641 63.9532C36.3606 64.0328 35.2103 64.1441 34.113 64.2802C31.9998 66.0713 30.036 67.6516 28.2266 69.0311C28.5171 69.6586 28.8159 70.2661 29.128 70.8538C31.7541 68.8651 34.5894 66.5461 37.5641 63.9532Z" fill="black"/>
<path d="M42.4977 38.678V41.0402C48.2247 37.5127 53.7558 33.8374 58.7109 30.2801C58.5349 29.5779 58.3457 28.8873 58.1481 28.21C53.369 31.6645 48.0188 35.2451 42.4977 38.678Z" fill="black"/>
<path d="M41.2427 10.1725C40.8161 10.2073 40.3944 10.2721 39.9761 10.3634C40.3961 10.3401 40.8177 10.3235 41.2427 10.3136V10.1725Z" fill="black"/>
<path d="M42.4977 10.1476V10.3136C43.072 10.3219 43.643 10.3418 44.2108 10.3783C43.6464 10.2522 43.0753 10.1741 42.4977 10.1476Z" fill="black"/>
<path d="M60.3842 41.2659C60.3244 40.328 60.2464 39.3984 60.1484 38.4854C58.3556 40.5505 56.4682 42.6471 54.5028 44.7503H57.2484C58.3341 43.5684 59.3782 42.4064 60.3842 41.2659Z" fill="black"/>
<path d="M42.4977 81.0213C43.5567 80.9748 44.5942 80.7524 45.6035 80.3739C44.5793 80.4801 43.5435 80.5415 42.4977 80.5565V81.0213Z" fill="black"/>
<path d="M42.921 59.1292C47.7914 54.604 52.1821 50.1951 56.0864 46.0069H53.3225C49.9013 49.6191 46.2625 53.2462 42.4977 56.777V59.5193C42.6388 59.3898 42.7799 59.2603 42.921 59.1292Z" fill="black"/>
<path d="M23.7065 49.4165C23.748 50.1503 23.8011 50.8773 23.8658 51.5961C27.2008 49.8747 30.6519 47.9956 34.1313 46.0069H30.041C27.9029 47.1938 25.7831 48.3342 23.7065 49.4165Z" fill="black"/>
<path d="M41.2427 60.6713V57.9456C39.337 59.7102 37.521 61.3387 35.7962 62.8343C36.8503 62.7364 37.9476 62.66 39.0847 62.6152C39.7968 61.9827 40.5173 61.332 41.2427 60.6713Z" fill="black"/>
<path d="M41.2427 80.9947V80.5499C40.3463 80.5316 39.4565 80.4801 38.5784 80.3971C39.4466 80.7159 40.3363 80.9184 41.2427 80.9947Z" fill="black"/>
<path d="M81.3184 18.1305C79.6368 15.1757 81.013 11.0871 81.0263 11.049C81.1674 10.6439 81.0362 10.1957 80.6992 9.93012C80.3606 9.66452 79.8925 9.6446 79.5323 9.87534C79.4958 9.89858 75.857 12.2126 72.5835 11.288C69.0726 10.2937 65.7344 9.64958 63.5033 12.6226C63.3124 12.8766 63.2526 13.207 63.3439 13.5107C63.4336 13.8145 63.6643 14.0585 63.9631 14.1681L67.474 15.4496L70.2927 16.4755L71.2671 16.8324L71.4697 17.3918C70.8007 18.0641 69.9358 18.8759 68.8369 19.8387C68.2044 19.1747 67.5487 18.5372 66.8698 17.9214C66.322 17.425 65.7592 16.9453 65.1816 16.4821C58.8287 11.376 50.7678 8.30996 42.0013 8.3C21.5252 8.2751 4.84555 24.9133 4.82065 45.3894C4.81733 47.9624 5.07795 50.474 5.57595 52.9009C0.378486 57.0343 -0.436574 58.6445 0.172646 59.7368C0.844946 61.5445 5.49627 73.4932 12.8965 78.2375L13.021 78.3039C13.28 78.4234 13.7166 78.6242 14.5018 78.6259C15.7053 78.6276 17.7271 78.1578 21.1866 76.2056C27.1061 80.2145 34.2392 82.5618 41.9117 82.5701C62.3878 82.595 79.0675 65.9551 79.0924 45.479C79.1007 37.9941 76.8812 31.0171 73.0616 25.1739C74.1705 23.5438 75.1216 22.0465 75.9151 20.7019L76.2504 20.7367L80.5847 27.1925C80.7623 27.4564 81.0528 27.6207 81.3699 27.6357C81.3865 27.6357 81.4014 27.6357 81.4164 27.6357C81.7168 27.6373 82.004 27.5012 82.1949 27.2688C84.5488 24.3904 83.1228 21.3044 81.3184 18.1305ZM6.09221 55.0755C6.28643 55.7943 6.49891 56.5081 6.73463 57.2102C4.61315 57.9855 3.23535 58.3507 2.43523 58.4768C2.91829 57.8859 3.93919 56.8384 6.09221 55.0755ZM71.8398 23.4143C71.4547 23.9936 71.0546 24.5813 70.6396 25.1772C68.0334 28.9172 64.8545 32.9842 61.259 37.1956C61.3719 38.1003 61.4682 39.015 61.5429 39.9396C65.7078 35.1372 69.1423 30.7449 71.8199 26.9601C75.0436 32.1509 76.9476 38.2364 77.0722 44.7519H78.3387V46.0052H77.0771C76.9377 54.6406 73.6708 62.5256 68.3605 68.5763C68.5796 68.6775 68.7987 68.7755 69.0178 68.88L68.4783 70.0122C68.143 69.8528 67.8093 69.7017 67.4757 69.549C62.665 74.6369 56.3553 78.2906 49.2605 79.7962C47.0012 81.4313 44.5693 82.2862 42.0594 82.2862C39.5794 82.2862 37.1757 81.4496 34.938 79.8526C30.6602 78.9811 26.6629 77.3361 23.1006 75.0619C23.6832 74.6967 24.2958 74.2983 24.9448 73.86C25.9607 73.1728 27.0248 72.4175 28.1254 71.6024C28.0855 71.5294 28.0457 71.4597 28.0075 71.3866C27.7336 70.8687 27.4713 70.3342 27.2157 69.7914C24.988 71.4514 23.0126 72.7927 21.2995 73.8285C20.6238 74.2385 19.993 74.5971 19.3988 74.9125C16.6697 76.37 14.8172 76.8646 13.9141 76.5044C8.22863 72.8126 4.13507 64.086 2.62613 60.4655C3.29179 60.3742 4.10353 60.18 5.09953 59.8779C5.79507 59.6654 6.57361 59.4031 7.42353 59.0927C8.01449 58.8769 8.64197 58.6362 9.29933 58.3772C10.7103 57.8161 12.2657 57.1571 13.934 56.4085C16.688 55.1751 19.6245 53.7608 22.6656 52.212C22.5959 51.4949 22.5378 50.7711 22.4913 50.044C19.6444 51.5065 16.8839 52.8544 14.2793 54.0496C12.0582 55.0655 10.1858 55.8656 8.61209 56.4915C8.30831 55.5768 8.04271 54.6472 7.81363 53.7027C7.63933 52.9822 7.48495 52.2535 7.35547 51.5164C7.04173 49.722 6.86411 47.881 6.83423 46.0052H5.82495V44.7519H6.83589C7.00189 36.1764 10.2522 28.3462 15.5227 22.3253C15.0147 22.0631 14.7225 21.8954 14.6727 21.8655L15.3052 20.7832C15.3201 20.7915 15.6986 21.009 16.4025 21.3576C21.4223 16.0323 28.0822 12.2724 35.5672 10.8913C37.6222 9.57156 39.8101 8.88266 42.0594 8.88266C44.3403 8.88266 46.5564 9.58982 48.638 10.9444C54.0114 11.9852 58.9533 14.2528 63.1564 17.4449C63.7473 17.8931 64.3233 18.3596 64.8844 18.8427C65.7277 19.5714 66.5378 20.34 67.3097 21.1451C67.1786 21.2546 67.0441 21.3659 66.9096 21.4771C67.4309 21.2447 67.9538 21.0073 68.4783 20.7566L69.0178 21.8904C67.1404 22.7835 65.2845 23.562 63.4568 24.2393C62.1106 25.2835 60.6929 26.3508 59.2155 27.4332C59.4214 28.1088 59.6156 28.796 59.7982 29.4949C62.0043 27.8897 64.0926 26.311 66.0132 24.7871C66.9528 24.0401 67.8359 23.3213 68.656 22.6324C69.1921 22.1842 69.7001 21.7477 70.1798 21.3277C70.9335 20.6653 71.6157 20.0428 72.2167 19.4668L72.3212 19.754C72.4507 20.1175 72.7777 20.3715 73.1612 20.413L73.7156 20.4711C73.138 21.4223 72.5121 22.405 71.8398 23.4143ZM81.3251 24.6942L77.6548 19.2278C77.4888 18.9804 77.2215 18.8194 76.9261 18.7879L73.9962 18.4824L73.777 17.8732L72.9968 15.7102C72.9952 15.7053 72.9935 15.7036 72.9919 15.7003C72.9802 15.6687 72.9636 15.6422 72.9487 15.6123C72.8358 15.3799 72.6416 15.1956 72.3976 15.1077L70.2661 14.3308L66.2108 12.8517C67.3794 12.2375 69.0759 12.3819 72.0374 13.2186C74.4842 13.9108 76.9626 13.2551 78.6259 12.5728C78.362 14.3507 78.3172 16.9137 79.5738 19.1249C81.096 21.8008 81.6421 23.4126 81.3251 24.6942Z" fill="black"/>
<path d="M39.8516 40.3065C37.3384 41.832 34.8003 43.3194 32.2754 44.7519H36.3025C37.8347 43.8589 39.3669 42.9492 40.8925 42.0229C41.0103 41.9515 41.1265 41.8801 41.2427 41.8088V39.4549C40.7796 39.7404 40.3164 40.0243 39.8516 40.3065Z" fill="black"/>
<path d="M23.7081 49.4149C23.645 48.2944 23.6102 47.1556 23.6019 46.0052H30.0427H34.1313C34.855 45.5919 35.5788 45.1736 36.3042 44.7503H32.2754H23.6052C23.6865 37.9808 24.7622 31.6761 26.56 26.3492C27.8332 26.6696 29.1911 26.9684 30.637 27.2306C33.6515 27.7768 37.2338 28.1802 41.2427 28.2017V39.4549V41.8071C41.6627 41.5531 42.081 41.2975 42.4977 41.0402V38.678V28.1968C47.0394 28.127 52.0941 27.5494 57.4841 26.1284C57.7182 26.8057 57.939 27.5012 58.1481 28.21C58.3457 28.8873 58.5349 29.5779 58.7109 30.2817C59.0777 30.0178 59.4396 29.7555 59.7982 29.4932C59.6172 28.796 59.4214 28.1088 59.2155 27.4332C59.0479 26.8804 58.8719 26.3359 58.6876 25.7981C60.253 25.3532 61.8433 24.8369 63.4585 24.2377C65.2861 23.562 67.1404 22.7835 69.0195 21.8904L68.4783 20.7566C67.9538 21.0073 67.4325 21.2447 66.9113 21.4771C63.9565 22.7901 61.0648 23.8177 58.261 24.6128C57.6236 22.908 56.9098 21.2878 56.113 19.7806C53.9815 15.7534 51.4318 12.7637 48.638 10.9444C46.5564 9.58982 44.3403 8.881 42.0611 8.881C39.8101 8.881 37.6239 9.5699 35.5672 10.8913C32.7418 12.7056 30.1605 15.7136 28.0092 19.7806C27.1759 21.3559 26.4322 23.0541 25.7748 24.8436C21.2629 23.6118 17.9961 22.1494 16.4025 21.3576C15.7003 21.009 15.3201 20.7915 15.3069 20.7815L14.6727 21.8655C14.7242 21.8954 15.0147 22.0631 15.5243 22.3253C17.025 23.0956 20.4429 24.6925 25.3548 26.0338C23.4757 31.5998 22.4349 38.0256 22.3552 44.7503H6.83754H5.82494V46.0052H6.83588H22.3502C22.3585 47.3648 22.4083 48.711 22.493 50.0424C22.5395 50.7711 22.5976 51.4932 22.6673 52.2103C23.064 52.0078 23.4641 51.8036 23.8658 51.5961C23.8011 50.8757 23.7496 50.1486 23.7081 49.4149ZM42.4977 10.3119V10.1476C43.0753 10.1725 43.6464 10.2522 44.2108 10.3783C49.4929 11.5602 54.1011 17.0382 57.0592 24.9398C51.8235 26.311 46.9116 26.8721 42.4977 26.9418V10.3119ZM39.9761 10.3634C40.3944 10.2721 40.8161 10.209 41.2427 10.1725V10.3152V26.9484C37.3384 26.9285 33.8524 26.5351 30.9125 26.0056C29.5248 25.7549 28.2134 25.4677 26.98 25.159C29.9481 17.1063 34.6176 11.5254 39.9761 10.3634Z" fill="black"/>
<path d="M60.3842 41.2659C60.4572 42.413 60.502 43.575 60.5153 44.7519H57.2484H54.5011C54.111 45.1686 53.7193 45.5869 53.3225 46.0052H56.0848H60.5186C60.4755 52.8693 59.4147 59.272 57.6087 64.6753C52.1721 63.2294 47.0743 62.6434 42.496 62.5737V59.5193V56.777C42.1823 57.0708 41.8685 57.3646 41.5548 57.6568C41.4502 57.7564 41.3473 57.851 41.2427 57.9473V60.6713V62.5671C40.5073 62.5704 39.7886 62.587 39.0831 62.6152C37.946 62.6617 36.8504 62.7364 35.7963 62.8343C35.2252 63.3307 34.6625 63.8121 34.1114 64.2802C35.2086 64.1441 36.3607 64.0312 37.5625 63.9515C38.7428 63.8751 39.9695 63.8287 41.2427 63.822V80.5498V80.9947C40.3364 80.9184 39.4466 80.7158 38.5784 80.3971C34.9364 79.0558 31.6712 75.6562 29.1264 70.8538C28.816 70.2661 28.5155 69.6569 28.2267 69.0294C27.8847 69.2917 27.5477 69.544 27.2157 69.7914C27.4714 70.3342 27.7336 70.8687 28.0075 71.3866C28.0457 71.4597 28.0856 71.5294 28.1254 71.6024C30.0925 75.2594 32.4082 78.0449 34.938 79.8526C37.1757 81.4496 39.5794 82.2862 42.0594 82.2862C44.5694 82.2862 47.0013 81.4313 49.2605 79.7962C51.8103 77.9519 54.1392 75.1133 56.1113 71.3866C56.9646 69.7731 57.7249 68.0334 58.3955 66.1942C61.3354 67.0341 64.3715 68.1347 67.4757 69.549C67.8093 69.7017 68.143 69.8528 68.4783 70.0122L69.0178 68.88C68.7987 68.7755 68.5796 68.6775 68.3605 68.5763C65.0953 67.064 61.8997 65.8937 58.8072 65.0073C60.6979 59.3566 61.7288 52.8312 61.7703 46.0052H77.0771H78.3387V44.7519H77.0722H61.7653C61.7454 43.1285 61.674 41.5199 61.5445 39.9396C61.4682 39.015 61.3719 38.1003 61.259 37.1956C60.8938 37.6239 60.5236 38.0538 60.1485 38.4854C60.2464 39.4001 60.3244 40.328 60.3842 41.2659ZM45.6019 80.3739C44.5926 80.7524 43.5568 80.9731 42.496 81.0213V80.5565V63.8287C46.9498 63.8984 51.9066 64.4661 57.192 65.8638C54.4978 73.2525 50.376 78.5844 45.6019 80.3739Z" fill="black"/>
</g>
<defs>
<clipPath id="clip0_1_60">
<rect width="250.66" height="83" fill="white"/>
</clipPath>
</defs>
</svg>
